<?xml version="1.0" encoding="UTF-8" standalone="no"?>
<svg
   xmlns:dc="http://purl.org/dc/elements/1.1/"
   xmlns:cc="http://creativecommons.org/ns#"
   xmlns:rdf="http://www.w3.org/1999/02/22-rdf-syntax-ns#"
   xmlns:svg="http://www.w3.org/2000/svg"
   xmlns="http://www.w3.org/2000/svg"
   xmlns:sodipodi="http://sodipodi.sourceforge.net/DTD/sodipodi-0.dtd"
   xmlns:inkscape="http://www.inkscape.org/namespaces/inkscape"
   version="1.1"
   x="0px"
   y="0px"
   viewBox="0 0 38 61.990311"
   xml:space="preserve"
   id="svg28"
   sodipodi:docname="acceleration.svg"
   width="38"
   height="61.990311"
   inkscape:version="1.0.1 (3bc2e813f5, 2020-09-07)"><metadata
     id="metadata34"><rdf:RDF><cc:Work
         rdf:about=""><dc:format>image/svg+xml</dc:format><dc:type
           rdf:resource="http://purl.org/dc/dcmitype/StillImage" /></cc:Work></rdf:RDF></metadata><defs
     id="defs32" /><sodipodi:namedview
     pagecolor="#ffffff"
     bordercolor="#666666"
     borderopacity="1"
     objecttolerance="10"
     gridtolerance="10"
     guidetolerance="10"
     inkscape:pageopacity="0"
     inkscape:pageshadow="2"
     inkscape:window-width="2560"
     inkscape:window-height="1377"
     id="namedview30"
     showgrid="false"
     inkscape:zoom="12.6"
     inkscape:cx="19"
     inkscape:cy="39.485694"
     inkscape:window-x="-8"
     inkscape:window-y="-8"
     inkscape:window-maximized="1"
     inkscape:current-layer="svg28" /><path
     d="M 6.5,34.7 C 6.3,34.2 5.8,33.9 5.3,34 4.8,34.2 4.5,34.7 4.6,35.2 4.8,36 5.2,36.8 5.5,37.6 5.7,38 6.2,38.4 6.8,38.1 7.3,37.8 7.5,37.3 7.3,36.8 7,36.1 6.7,35.4 6.5,34.7 Z"
     id="path2" /><path
     d="M 20,16.1 V 3.4 l 2.3,2.3 c 0.2,0.2 1,0.6 1.4,0 0.3,-0.4 0.4,-1 0,-1.4 l -4,-4 C 19,-0.3 18.4,0.2 18.3,0.3 l -4,4 c -0.4,0.4 -0.4,1 0,1.4 0.4,0.4 1,0.4 1.4,0 L 18,3.4 V 16 c -7.8,0.5 -14,7 -14,14.9 0,0.6 0.4,1 1,1 0.6,0 1,-0.4 1,-1 0,-7.2 5.8,-13 13,-13 7.2,0 13,5.8 13,13 0,7.2 -5.8,13 -13,13 -3.5,0 -6.8,-1.4 -9.3,-3.9 -0.4,-0.4 -1,-0.4 -1.4,0 -0.4,0.4 -0.4,1 0,1.4 2.6,2.7 6,4.2 9.7,4.4 v 3 c 0,0.6 0.4,1 1,1 0.6,0 1,-0.4 1,-1 v -3 c 7.8,-0.5 14,-7 14,-14.9 0,-7.8 -6.2,-14.3 -14,-14.8 z"
     id="path4" /><path
     d="M 22.3,56.3 20,58.6 v -5.4 c 0,-0.6 -0.4,-1 -1,-1 -0.6,0 -1,0.4 -1,1 v 5.4 l -2.3,-2.3 c -0.4,-0.4 -1,-0.4 -1.4,0 -0.4,0.4 -0.4,1 0,1.4 l 4,4 c 0.7,0.6 1.3,0.1 1.4,0 l 4,-4 c 0.4,-0.4 0.4,-1 0,-1.4 -0.4,-0.4 -1,-0.4 -1.4,0 z"
     id="path6" /><path
     d="m 24.4,38.2 c -0.4,0.3 -0.5,0.9 -0.2,1.4 0.5,0.7 1.2,0.3 1.4,0.2 2.8,-2.1 4.4,-5.4 4.4,-8.8 0,-0.6 -0.4,-1 -1,-1 -0.6,0 -1,0.4 -1,1 0,2.8 -1.3,5.5 -3.6,7.2 z"
     id="path8" /><path
     d="m 28.6,27.9 c 0.5,-0.3 0.7,-0.8 0.5,-1.3 -0.4,-0.9 -0.8,-1.6 -1.4,-2.2 -0.4,-0.4 -1,-0.5 -1.4,-0.1 -0.4,0.4 -0.5,1 -0.1,1.4 0.4,0.5 0.8,1.1 1,1.8 0.2,0.3 0.9,0.7 1.4,0.4 z"
     id="path10" /><path
     d="m 27,16 c 0.6,0 1,-0.4 1,-1 v -4 c 0,-0.6 -0.4,-1 -1,-1 -0.6,0 -1,0.4 -1,1 v 4 c 0,0.6 0.4,1 1,1 z"
     id="path12" /><path
     d="m 11,12 c 0.6,0 1,-0.4 1,-1 V 7 C 12,6.4 11.6,6 11,6 10.4,6 10,6.4 10,7 v 4 c 0,0.6 0.4,1 1,1 z"
     id="path14" /><path
     d="M 1,8 C 0.4,8 0,8.4 0,9 v 10 c 0,0.6 0.4,1 1,1 0.6,0 1,-0.4 1,-1 V 9 C 2,8.4 1.6,8 1,8 Z"
     id="path16" /><path
     d="m 37,12 c -0.6,0 -1,0.4 -1,1 v 8 c 0,0.6 0.4,1 1,1 0.6,0 1,-0.4 1,-1 v -8 c 0,-0.6 -0.4,-1 -1,-1 z"
     id="path18" /><path
     d="m 33,0 c -0.6,0 -1,0.4 -1,1 v 4 c 0,0.6 0.4,1 1,1 0.6,0 1,-0.4 1,-1 V 1 C 34,0.4 33.6,0 33,0 Z"
     id="path20" /><path
     d="M 5,4 C 5.6,4 6,3.6 6,3 V 1 C 6,0.4 5.6,0 5,0 4.4,0 4,0.4 4,1 v 2 c 0,0.6 0.4,1 1,1 z"
     id="path22" /></svg>
