<?xml version="1.0" encoding="UTF-8" standalone="no"?>
<svg
   id="Layer_3"
   data-name="Layer 3"
   viewBox="0 0 1417.3 757.3"
   version="1.1"
   sodipodi:docname="measure_PM4.svg"
   inkscape:version="1.4.2 (f4327f4, 2025-05-13)"
   xmlns:inkscape="http://www.inkscape.org/namespaces/inkscape"
   xmlns:sodipodi="http://sodipodi.sourceforge.net/DTD/sodipodi-0.dtd"
   xmlns="http://www.w3.org/2000/svg"
   xmlns:svg="http://www.w3.org/2000/svg"
   xmlns:rdf="http://www.w3.org/1999/02/22-rdf-syntax-ns#"
   xmlns:cc="http://creativecommons.org/ns#"
   xmlns:dc="http://purl.org/dc/elements/1.1/">
  <defs
     id="defs13">
    <rect
       x="976.01028"
       y="535.0979"
       width="210.10614"
       height="210.10614"
       id="rect18" />
    <rect
       x="979.45944"
       y="535.89409"
       width="38.739332"
       height="207.90108"
       id="rect17" />
    <rect
       x="982.04206"
       y="541.05933"
       width="60.045964"
       height="202.73584"
       id="rect16" />
    <rect
       x="965.25501"
       y="539.12237"
       width="45.195887"
       height="202.73584"
       id="rect15" />
    <rect
       x="972.35723"
       y="533.95712"
       width="56.817686"
       height="205.96411"
       id="rect14" />
    <rect
       x="986.56165"
       y="535.24843"
       width="87.163496"
       height="205.96411"
       id="rect13" />
  </defs>
  <sodipodi:namedview
     id="namedview13"
     pagecolor="#ffffff"
     bordercolor="#000000"
     borderopacity="0.25"
     inkscape:showpageshadow="2"
     inkscape:pageopacity="0.0"
     inkscape:pagecheckerboard="0"
     inkscape:deskcolor="#d1d1d1"
     inkscape:zoom="0.34159563"
     inkscape:cx="-393.7404"
     inkscape:cy="-98.06917"
     inkscape:window-width="2560"
     inkscape:window-height="1369"
     inkscape:window-x="-8"
     inkscape:window-y="-8"
     inkscape:window-maximized="1"
     inkscape:current-layer="Layer_3" />
  <title
     id="title1">PM1</title>
  <path
     d="M 1142.72,445.43 C 1123.61,364.2 1064.44,297 986.83,267.19 948.23,113.46 807.78,3.19 648.09,3.19 c -160.65,0 -301.36,111.13 -339.25,266 a 253.44,253.44 0 0 0 -157.57,234.4 c 0,136.57 106.2,247.14 242.26,252.84 a 22.83,22.83 0 0 0 3.31,0.24 h 38.81 a 22.405,22.405 0 1 0 0,-44.81 H 399.3 c -0.58,-0.06 -1.16,-0.1 -1.75,-0.12 -113,-3.62 -201.47,-95.05 -201.47,-208.15 A 208.55,208.55 0 0 1 335.44,307 22.39,22.39 0 0 0 350,290.4 C 379,149.94 504.42,48 648.09,48 791,48 916.23,149.29 945.87,288.85 a 22.4,22.4 0 0 0 15,16.65 c 68.74,22.36 121.72,79.91 138.26,150.19 a 22.4052,22.4052 0 0 0 43.62,-10.26 z"
     id="path1"
     style="display:inline" />
  <path
     d="m 660.19,533.83 c -8.62,-2.16 -24.06,-3.2 -47.18,-3.2 h -38.59 a 9.87,9.87 0 0 0 -9.87,9.87 v 193.77 a 9.87,9.87 0 0 0 9.87,9.87 h 19.36 a 9.87,9.87 0 0 0 9.87,-9.87 V 654 h 4 c 25,0 41.92,-1.12 51.58,-3.43 14.12,-3.4 25.44,-10.23 33.65,-20.29 8.21,-10.06 12.5,-23 12.5,-38.18 0,-15.18 -4.31,-28 -12.82,-38.25 a 59.5,59.5 0 0 0 -32.37,-20.02 z m -33.49,81.9 -23.05,-0.28 V 569.34 H 628 c 14.64,0 21.48,1.48 24.63,2.73 a 19.26,19.26 0 0 1 9.26,7.72 22.07,22.07 0 0 1 3.66,12.42 22.51,22.51 0 0 1 -3.66,12.68 20.07,20.07 0 0 1 -9.85,7.91 c -3.36,1.33 -10.55,2.92 -25.34,2.93 z"
     id="path2"
     style="display:inline" />
  <path
     d="M 916.14,530.63 H 913 a 9.87,9.87 0 0 0 -8.86,5.52 l -69.2,141 -69.84,-141.04 a 9.87,9.87 0 0 0 -8.84,-5.49 h -3.14 a 9.86,9.86 0 0 0 -9.77,8.47 l -27.74,193.78 a 9.87,9.87 0 0 0 9.77,11.27 h 18.7 a 9.87,9.87 0 0 0 9.78,-8.54 l 14.7,-107.81 55.04,110.86 a 9.87,9.87 0 0 0 8.84,5.48 h 4.95 a 9.87,9.87 0 0 0 8.84,-5.5 l 54.29,-109.8 14.76,106.78 a 9.87,9.87 0 0 0 9.77,8.52 h 19 a 9.86,9.86 0 0 0 9.77,-11.27 L 925.91,539.09 a 9.87,9.87 0 0 0 -9.77,-8.46 z"
     id="path3"
     style="display:inline" />
  <path
     d="M 649.2,350 A 22.63,22.63 0 1 0 626.57,327.37 22.66,22.66 0 0 0 649.2,350 Z"
     id="path5"
     style="display:inline" />
  <path
     d="M 649.2,476.59 A 22.63,22.63 0 1 0 626.57,454 22.66,22.66 0 0 0 649.2,476.59 Z"
     id="path6"
     style="display:inline" />
  <path
     d="m 649.2,223.39 a 22.63,22.63 0 1 0 -22.63,-22.63 22.66,22.66 0 0 0 22.63,22.63 z"
     id="path7"
     style="display:inline" />
  <path
     d="M 573.6,390.66 A 22.63,22.63 0 1 0 551,413.29 22.66,22.66 0 0 0 573.6,390.66 Z"
     id="path8"
     style="display:inline" />
  <path
     d="M 551,286.68 A 22.63,22.63 0 1 0 528.37,264.05 22.65,22.65 0 0 0 551,286.68 Z"
     id="path9"
     style="display:inline" />
  <path
     d="m 452.74,304.73 a 22.63,22.63 0 1 0 22.63,22.63 22.65,22.65 0 0 0 -22.63,-22.63 z"
     id="path10"
     style="display:inline" />
  <path
     d="m 747.43,413.29 a 22.63,22.63 0 1 0 -22.63,-22.63 22.66,22.66 0 0 0 22.63,22.63 z"
     id="path11"
     style="display:inline" />
  <path
     d="m 747.43,286.68 a 22.63,22.63 0 1 0 -22.63,-22.63 22.65,22.65 0 0 0 22.63,22.63 z"
     id="path12"
     style="display:inline" />
  <path
     d="M 868.29,327.36 A 22.63,22.63 0 1 0 845.66,350 22.65,22.65 0 0 0 868.29,327.36 Z"
     id="path13"
     style="display:inline" />
  <text
     xml:space="preserve"
     style="font-style:normal;font-variant:normal;font-weight:normal;font-stretch:normal;font-size:266.667px;font-family:'Comic Sans MS';-inkscape-font-specification:'Comic Sans MS';text-align:start;writing-mode:lr-tb;direction:ltr;text-anchor:start;white-space:pre;inline-size:171.338;display:inline;fill:#000000"
     x="995.67542"
     y="728.64392"
     id="text19"
     transform="translate(-21.735118,9.3150504)"><tspan
       x="995.67542"
       y="728.64392"
       id="tspan1">4</tspan></text>
  <metadata
     id="metadata19">
    <rdf:RDF>
      <cc:Work
         rdf:about="">
        <dc:title>PM1</dc:title>
      </cc:Work>
    </rdf:RDF>
  </metadata>
</svg>
