<?xml version="1.0" encoding="UTF-8" standalone="no"?>
<svg
   version="1.1"
   viewBox="-5 -10 102.41234 96.522797"
   id="svg2"
   sodipodi:docname="measure_nox.svg"
   width="102.41234"
   height="96.522797"
   inkscape:version="1.4.2 (f4327f4, 2025-05-13)"
   xmlns:inkscape="http://www.inkscape.org/namespaces/inkscape"
   xmlns:sodipodi="http://sodipodi.sourceforge.net/DTD/sodipodi-0.dtd"
   xmlns="http://www.w3.org/2000/svg"
   xmlns:svg="http://www.w3.org/2000/svg">
  <defs
     id="defs2" />
  <sodipodi:namedview
     id="namedview2"
     pagecolor="#ffffff"
     bordercolor="#000000"
     borderopacity="0.25"
     inkscape:showpageshadow="2"
     inkscape:pageopacity="0.0"
     inkscape:pagecheckerboard="0"
     inkscape:deskcolor="#d1d1d1"
     showguides="false"
     inkscape:zoom="6.1125453"
     inkscape:cx="12.188049"
     inkscape:cy="38.036528"
     inkscape:window-width="2560"
     inkscape:window-height="1369"
     inkscape:window-x="-8"
     inkscape:window-y="-8"
     inkscape:window-maximized="1"
     inkscape:current-layer="svg2">
    <sodipodi:guide
       position="-6.8711148,136.30878"
       orientation="0,110"
       id="guide2"
       inkscape:locked="false" />
    <sodipodi:guide
       position="106.07365,147.10625"
       orientation="135,0"
       id="guide3"
       inkscape:locked="false" />
    <sodipodi:guide
       position="-8.822632e-09,36.186826"
       orientation="0,-110"
       id="guide4"
       inkscape:locked="false" />
    <sodipodi:guide
       position="-3.9263513,12.10625"
       orientation="-135,0"
       id="guide5"
       inkscape:locked="false" />
  </sodipodi:namedview>
  <path
     d="m 84.761649,47.59275 c -0.75391,0 -1.4961,0.16016 -2.1836,0.46094 -1.1211,-3.0234 -4.0078,-5.0312 -7.2344,-5.0234 -0.69922,0 -1.3984,0.09375 -2.0703,0.27734 -1.418,-4.3477 -5.2383,-7.4766 -9.7852,-8.0078 -2.3008,-4.4219 -6.1445,-7.8477 -10.805,-9.625 -4.6562,-1.7812 -9.8047,-1.7891 -14.473,-0.03125 -4.6641,1.7617 -8.5234,5.1719 -10.84,9.5859 -0.23438,-0.01563 -0.46484,-0.01953 -0.69531,-0.01953 -5.1055,-0.01953 -9.6445,3.25 -11.246,8.0977 -0.67578,-0.18359 -1.3711,-0.27734 -2.0703,-0.27734 -3.2266,-0.0039 -6.1094003,2.0039 -7.2305003,5.0273 -1.6523,-0.73437 -3.5664,-0.58594 -5.0859,0.39063 -1.52340001,0.97656 -2.4492,2.6562 -2.4688,4.4648 0.027344,2.2695 1.47659999,4.2734 3.6211,5.0156 2.1406,0.74609 4.5195,0.0625 5.9453,-1.6992 3.1250003,2.8594 7.9688003,2.6758 10.8630003,-0.41797 3.1758,2.6719 7.5117,3.5039 11.449,2.1914 3.793,4.0781 9.0898,6.4297 14.66,6.5117 5.5664,0.08203 10.93,-2.1133 14.84,-6.0781 0.6875,0.11719 1.3789,0.17578 2.0742,0.17578 2.8086,0.0039 5.5234,-0.98828 7.6719,-2.7969 2.8906,3.0898 7.7344,3.2773 10.859,0.41797 1.1328,1.457 2.9414,2.2227 4.7773,2.0312 1.8359,-0.19141 3.4414,-1.3203 4.25,-2.9805 0.80859,-1.6602 0.70312,-3.6211 -0.28125,-5.1836 -0.98047,-1.5625 -2.6992,-2.5078 -4.5469,-2.5039 z m 0,8.0508 c -1.2617,0.0078 -2.3633,-0.84375 -2.6797,-2.0625 -0.13281,-0.50781 -0.55469,-0.88672 -1.0742,-0.96484 -0.51953,-0.07422 -1.0352,0.16406 -1.3086,0.61328 -0.92188,1.5273 -2.5742,2.4531 -4.3555,2.4453 -1.7891,-0.0039 -3.4453,-0.94141 -4.3711,-2.4688 -0.21484,-0.35547 -0.58594,-0.58594 -0.99609,-0.625 -0.41406,-0.03906 -0.82031,0.11719 -1.0977,0.42188 -1.7539,1.9297 -4.2383,3.0312 -6.8477,3.0312 -0.74609,0 -1.4922,-0.08984 -2.2188,-0.26172 -0.46484,-0.11328 -0.94922,0.03516 -1.2734,0.38672 -3.4531,3.7695 -8.3555,5.8711 -13.465,5.7734 -5.1094,-0.09766 -9.9297,-2.3867 -13.234,-6.2852 -0.375,-0.4375 -0.98828,-0.58203 -1.5195,-0.35547 -3.6289,1.543 -7.8398,0.62891 -10.5,-2.2891 -0.27734,-0.30469 -0.68359,-0.46094 -1.0977,-0.42188 -0.41016,0.04297 -0.78125,0.27344 -0.99219,0.62891 -0.92188,1.5273 -2.5742,2.4648 -4.3594,2.4727 -1.7852,0.0039 -3.4414003,-0.92578 -4.3711003,-2.4531 -0.27344,-0.44531 -0.78906,-0.68359 -1.3047,-0.60938 -0.51953,0.07813 -0.94141,0.45703 -1.0742,0.96484 -0.24609,1.0273 -1.0586,1.8203 -2.0938,2.0469 -1.0312,0.22656 -2.1016,-0.16016 -2.7539,-0.98828 -0.65234,-0.83203 -0.77344001,-1.9609 -0.3125,-2.9102 0.46484,-0.94922 1.4297,-1.5508 2.4844,-1.5508 0.79297,0 1.543,0.33594 2.0703,0.92578 0.35156,0.39062 0.90234,0.53516 1.4023,0.36328 0.49609,-0.16797 0.83984,-0.61719 0.875,-1.1406 0.125,-1.707 1.1016,-3.2383 2.5977003,-4.0703 1.4961,-0.83594 3.3125,-0.85938 4.8281,-0.06641 0.37109,0.19141 0.80859,0.19922 1.1836,0.01953 0.37109,-0.17969 0.63672,-0.52734 0.71094,-0.93359 0.92578,-4.8281 5.4766,-8.0781 10.344,-7.3906 0.57031,0.08203 1.1289,-0.21875 1.3711,-0.73828 1.9141,-4.0898 5.3125,-7.2969 9.5078,-8.9688 4.1914,-1.6719 8.8672,-1.6836 13.066,-0.03125 4.2031,1.6484 7.6172,4.8398 9.5508,8.918 0.20703,0.43359 0.63281,0.72266 1.1094,0.74609 4.2266,0.21484 7.7539,3.3047 8.5234,7.4648 0.07422,0.41016 0.33984,0.75391 0.71484,0.93359 0.37109,0.17969 0.80859,0.17188 1.1797,-0.01953 1.5195,-0.79297 3.332,-0.76953 4.8281,0.0625 1.5,0.83594 2.4766,2.3633 2.6055,4.0742 0.03516,0.51953 0.37891,0.97266 0.875,1.1406 0.5,0.16797 1.0508,0.02734 1.4023,-0.36328 0.52734,-0.58984 1.2773,-0.92578 2.0703,-0.92578 0.73047,-0.01562 1.4414,0.26563 1.9648,0.78125 0.52344,0.51563 0.82031,1.2188 0.82031,1.9531 0,0.73047 -0.29688,1.4336 -0.82031,1.9492 -0.52344,0.51562 -1.2344,0.79688 -1.9648,0.78125 z m -54.109,-17.898 c 1.1797,-2.5508 3.0078,-4.75 5.3008,-6.375 0.58594,-0.41797 1.3984,-0.28125 1.8203,0.29688 0.19922,0.27734 0.28125,0.625 0.22656,0.96484 -0.05859,0.33594 -0.24609,0.64062 -0.52734,0.83594 -1.9219,1.3672 -3.457,3.2109 -4.4492,5.3516 -0.21094,0.46094 -0.67578,0.75781 -1.1836,0.75391 -0.1875,0 -0.375,-0.03906 -0.54297,-0.11719 -0.31641,-0.14062 -0.55859,-0.39844 -0.67969,-0.72266 -0.12109,-0.32031 -0.10938,-0.67578 0.03516,-0.98828 z m 28.434,15.656 -1.625,1.793 c -1.1523,1.2617 -2.5,2.3359 -3.9883,3.1797 -0.625,0.35547 -1.418,0.14062 -1.7773,-0.47656 -0.17188,-0.30078 -0.21875,-0.65234 -0.12891,-0.98438 0.09375,-0.33203 0.3125,-0.61328 0.61328,-0.78125 1.25,-0.70703 2.3828,-1.6133 3.3516,-2.6758 l 1.6211,-1.7852 c 0.48438,-0.53125 1.3047,-0.57422 1.8438,-0.09766 0.25781,0.22656 0.41016,0.55078 0.42969,0.89453 0.01563,0.34375 -0.10547,0.67969 -0.33984,0.93359 z m -19.574,4.7852 c -0.34375,0.62891 -1.1328,0.86328 -1.7656,0.52344 -1.8555,-0.99609 -3.4883,-2.3555 -4.8008,-4 l -1.9336,-2.2891 c -0.21875,-0.26172 -0.32812,-0.60156 -0.29688,-0.94531 0.03125,-0.33984 0.19531,-0.65625 0.46094,-0.875 0.55469,-0.45703 1.375,-0.38672 1.8398,0.16016 l 1.9414,2.3008 0.01953,0.02344 v 0.0039 c 1.0938,1.375 2.457,2.5156 4.0078,3.3477 0.30469,0.16016 0.53125,0.4375 0.62891,0.76562 0.10156,0.32812 0.0625,0.68359 -0.10156,0.98438 z m 21.648,-18.324 c 0.14453,0.30859 0.16016,0.66406 0.03906,0.98828 -0.11719,0.32031 -0.35938,0.58203 -0.67578,0.72656 -0.64844,0.29688 -1.4219,0.01953 -1.7305,-0.62891 l -1.0195,-2.1758 c -1.2422,-2.5156 -3.2109,-4.5977 -5.6484,-5.9805 -0.30078,-0.16797 -0.51953,-0.44922 -0.60938,-0.78125 -0.08984,-0.32813 -0.04297,-0.68359 0.12891,-0.98047 0.36328,-0.62109 1.1562,-0.83203 1.7812,-0.47656 2.8945,1.6406 5.2305,4.1133 6.6992,7.1016 l 0.01172,0.01953 z m 23.844,-28.48 c -0.42578,0.0039 -0.84766,0.03516 -1.2695,0.09766 -1.9727,-3.2266 -5.6367,-5.0117 -9.3906,-4.582 -3.7578,0.42969 -6.9219,2.9961 -8.1211,6.582 -2.3281,-0.88672 -4.9414,-0.57813 -7,0.82422 -2.0586,1.4023 -3.3008,3.7227 -3.3281,6.2109 0.02734,4.1836 3.4336,7.5508 7.6133,7.5312 3.5781,0 7.25,0.07813 10.801,0.15625 3.5234,0.07813 7.1719,0.15625 10.691,0.15625 v 0.0039 c 0.84766,0 1.6914,-0.125 2.5,-0.37109 3.6055,-1.0586 6.0781,-4.3633 6.0742,-8.1211 -0.02734,-4.707 -3.8633,-8.5039 -8.5703,-8.4883 z m 1.7383,14.137 c -0.5625,0.17188 -1.1484,0.25781 -1.7383,0.25781 -3.4922,0 -7.125,-0.07812 -10.637,-0.15625 -3.5664,-0.07812 -7.25,-0.15625 -10.867,-0.15625 h -0.05859 c -2.7188,-0.02734 -4.918,-2.2266 -4.9375,-4.9492 0.01953,-1.8555 1.0664,-3.5469 2.7148,-4.3945 1.6484,-0.85156 3.6328,-0.71875 5.1562,0.34375 0.375,0.26172 0.85938,0.30469 1.2773,0.12109 0.41792,-0.1836 0.71094,-0.57031 0.76562,-1.0234 0.42188,-3.1133 2.8398,-5.5781 5.9453,-6.0586 3.1055,-0.48047 6.1523,1.1406 7.4961,3.9805 0.27344,0.57812 0.92188,0.87109 1.5352,0.69922 1.7852,-0.49609 3.7031,-0.13672 5.1836,0.97656 1.4844,1.1172 2.3633,2.8555 2.3828,4.7109 0.0078,2.6094 -1.7109,4.9141 -4.2188,5.6484 z M 8.8759487,25.69553 c 0.53906,0.16016 1.1016,0.24219 1.6680003,0.24219 2.1406,0 4.3555,-0.04687 6.5,-0.09375 2.1445,-0.04687 4.3828,-0.09375 6.5391,-0.09375 1.3789,0.05078 2.7188,-0.45703 3.7148,-1.4141 0.99219,-0.95703 1.5586,-2.2773 1.5586,-3.6562 0,-1.3828 -0.55859,-2.7031 -1.5508,-3.6641 -0.99219,-0.95703 -2.3359,-1.4727 -3.7148,-1.4219 -0.45312,0 -0.90234,0.05859 -1.3398,0.17578 -0.91797,-2.1602 -2.9375,-3.6445 -5.2695,-3.8789 -2.332,-0.2344 -4.6055,0.82031 -5.9336,2.7539 -0.17188,-0.01563 -0.34375,-0.02344 -0.51172,-0.02344 -2.8086003,-0.01562 -5.2031003,2.0391 -5.6211003,4.8164 -0.41797,2.7812 1.2695,5.4453 3.9609,6.2578 z m 1.6680003,-8.5 c 0.28125,0 0.56641,0.03906 0.83984,0.11328 0.60938,0.17188 1.2578,-0.125 1.5312,-0.69922 0.71484,-1.5195 2.3438,-2.3867 4.0039,-2.1328 1.6641,0.25781 2.957,1.5742 3.1797,3.2422 0.05859,0.45312 0.34766,0.83984 0.76562,1.0234 0.41797,0.18359 0.90234,0.13672 1.2812,-0.125 0.76563,-0.53125 1.7656,-0.59375 2.5977,-0.16797 0.82812,0.42969 1.3555,1.2773 1.3711,2.2148 0,0.67188 -0.27734,1.3164 -0.76172,1.7852 -0.46484,0.46484 -1.1016,0.72266 -1.7617,0.71484 -2.1992,0 -4.4375,0.04687 -6.6094,0.09375 -2.1289,0.04687 -4.3281,0.09375 -6.4375,0.09375 -0.30859,0 -0.6132803,-0.04297 -0.9062503,-0.13281 -1.4688,-0.4375 -2.3945,-1.8906 -2.1641,-3.4062 0.22656,-1.5156 1.5352,-2.6328 3.0703003,-2.6172 z m 35.305,11.172 h -1.3828 c -0.99609,0.01563 -1.9414,0.44141 -2.6133,1.1797 -0.80859,0.87891 -1.2188,2.0547 -1.1211,3.2461 l 1.082,14.383 c 0.02344,1.6211 1.2969,2.9453 2.9141,3.0312 h 0.66797 c 1.5977,-0.08594 2.8672,-1.3828 2.9141,-2.9844 l 1.2734,-14.406 c 0.10547,-1.1875 -0.28906,-2.3672 -1.0938,-3.2422 -0.67578,-0.75391 -1.6328,-1.1914 -2.6406,-1.207 z m 1.1367,4.2227 -1.2734,14.414 c -0.03516,0.42969 -0.26172,0.625 -0.31641,0.625 h -0.66406 c -0.05469,0 -0.28125,-0.20703 -0.31641,-0.64062 l -1.082,-14.383 c -0.04687,-0.47656 0.11328,-0.94922 0.43359,-1.3008 0.17578,-0.20703 0.42969,-0.33594 0.69922,-0.35547 h 1.3828 c 0.28125,0.01953 0.53906,0.15234 0.71875,0.36719 0.30859,0.34766 0.46094,0.80859 0.41406,1.2734 z m -1.8281,19.723 c -1.5586,0.01563 -2.9531,0.96484 -3.5391,2.4102 -0.58594,1.4453 -0.24609,3.0977 0.86328,4.1914 1.1055,1.0977 2.7617,1.4219 4.1992,0.82031 1.4375,-0.59766 2.375,-2.0039 2.375,-3.5625 -0.01172,-2.1406 -1.7578,-3.8672 -3.8984,-3.8594 z m 0,5.1367 c -0.51562,-0.0039 -0.97656,-0.32031 -1.1719,-0.79688 -0.19141,-0.47656 -0.08203,-1.0234 0.28516,-1.3867 0.36719,-0.36328 0.91406,-0.46875 1.3906,-0.26953 0.47266,0.19531 0.78125,0.66016 0.78125,1.1758 -0.0039,0.70703 -0.57813,1.2812 -1.2852,1.2773 z m -0.93359,-53.887 c 0.0039,-0.71484 0.58203,-1.293 1.2969,-1.293 h 12.434 c 1.7539,0.01563 3.3242,1.082 3.9844,2.707 0.66016,1.6211 0.27734,3.4844 -0.96484,4.7188 -1.2461,1.2305 -3.1094,1.5977 -4.7266,0.92188 -1.6172,-0.67578 -2.6719,-2.2539 -2.6719,-4.0078 0,-0.71875 0.58203,-1.3047 1.3047,-1.3047 0.71875,0 1.3047,0.58594 1.3047,1.3047 -0.0078,0.72266 0.41797,1.375 1.082,1.6562 0.66406,0.28125 1.4336,0.13281 1.9453,-0.375 0.51172,-0.50781 0.66406,-1.2734 0.39062,-1.9375 -0.27344,-0.66797 -0.92578,-1.1016 -1.6445,-1.1016 h -12.434 c -0.71484,0.0039 -1.2969,-0.57422 -1.3008,-1.2891 z m -13.348,9.2188 c 0.0039,-0.71484 0.58594,-1.293 1.3008,-1.293 h 5.2969 c 0.35156,-0.0078 0.6875,0.125 0.9375,0.36719 0.25,0.24219 0.39062,0.57812 0.39062,0.92578 0,0.34766 -0.14062,0.68359 -0.39062,0.92578 -0.25,0.24219 -0.58594,0.375 -0.9375,0.36719 h -5.2891 c -0.71875,0.0039 -1.3047,-0.57422 -1.3086,-1.293 z m 10.434,0 c 0.0039,-0.71484 0.58203,-1.293 1.2969,-1.293 h 3.4414 c 0.34766,-0.0078 0.68359,0.125 0.93359,0.36719 0.25,0.24219 0.39453,0.57812 0.39453,0.92578 0,0.34766 -0.14453,0.68359 -0.39453,0.92578 -0.25,0.24219 -0.58594,0.375 -0.93359,0.36719 h -3.4336 c -0.71484,0 -1.2969,-0.57813 -1.3008,-1.293 z m -30.434,-7.1289 h 8.7852 c 0.04687,0 0.08984,0 0.13281,-0.0078 v 0.0039 c 1.3789,-0.06641 2.5859,-0.94922 3.0664,-2.2422 0.48047,-1.293 0.14844,-2.74610005 -0.85156,-3.69920005 -1,-0.95309995 -2.4688,-1.21879995 -3.7383,-0.67578 -1.2656,0.54297 -2.0898,1.7891 -2.0898,3.17190005 0,0.32031 0.12109,0.62891 0.33984,0.86719 h -5.6445 c -0.34766,-0.01172 -0.6875,0.12109 -0.9375003,0.36328 -0.25,0.24609 -0.39062,0.57813 -0.39062,0.92578 0,0.35156 0.14062,0.68359 0.39062,0.92969 0.2500003,0.24219 0.5898403,0.375 0.9375003,0.36328 z m 7.9141,-3.4492 c -0.0039,-0.35547 0.21094,-0.67578 0.53516,-0.8125 0.32812,-0.13672 0.70312,-0.0625 0.95703,0.1875 0.25,0.25 0.32422,0.625 0.1875,0.95312 -0.13281,0.32812 -0.45312,0.53906 -0.80859,0.53906 h -1.207 c 0.21875,-0.23828 0.33984,-0.54688 0.33984,-0.86719 z m 48.723,-5.6914 c 0.0078,-0.71875 0.58984,-1.2969 1.3047,-1.293 h 5.293 c 0.71094,0 1.2891,0.57812 1.2891,1.293 0,0.71484 -0.57812,1.293 -1.2891,1.293 h -5.293 c -0.71484,0 -1.2969,-0.57812 -1.3008,-1.293 z m 10.434,0 c 0.0078,-0.71484 0.58594,-1.293 1.3008,-1.293 h 3.4375 c 0.71484,0 1.293,0.57812 1.293,1.293 0,0.71484 -0.57812,1.293 -1.293,1.293 h -3.4297 c -0.71484,0 -1.3008,-0.57812 -1.3047,-1.293 z m -54.613,72.289 0.0078,0.06641 v 0.13281 l -0.0078,0.06641 -0.02344,0.125 -0.03125,0.125 -0.01953,0.05859 -0.02344,0.0625 -0.02734,0.05859 -0.03125,0.05469 -0.03125,0.05859 -0.03125,0.05469 -0.03516,0.04687 -0.03516,0.05078 -0.04297,0.04687 -0.04297,0.04297 -0.04687,0.04297 -0.04688,0.03906 -0.04687,0.03516 -0.10938,0.07031 -0.05078,0.03125 -0.17578,0.08203 -0.0625,0.01563 -0.05859,0.01953 -0.0625,0.01172 -0.0625,0.01562 -0.06641,0.0039 h -0.0625 l -11.492,0.0039 h -0.0625 l -0.06641,-0.0039 -0.0625,-0.01563 -0.0625,-0.01172 -0.05859,-0.01953 -0.0625,-0.01563 -0.17578,-0.08203 -0.05469,-0.03125 -0.05078,-0.03516 -0.05469,-0.03516 -0.04687,-0.03516 -0.05078,-0.04297 -0.04687,-0.04297 -0.04297,-0.04297 -0.04297,-0.04687 -0.03516,-0.05078 -0.03516,-0.04687 -0.03125,-0.05469 -0.03125,-0.05859 -0.03516,-0.05469 -0.02734,-0.05859 -0.01953,-0.0625 -0.01953,-0.05859 -0.01563,-0.0625 -0.01953,-0.05859 -0.02344,-0.125 v -0.26562 l 0.02344,-0.125 0.03125,-0.125 0.01953,-0.05859 0.01953,-0.0625 0.02734,-0.05859 0.03125,-0.05078 0.03125,-0.05859 0.03125,-0.05078 0.03516,-0.04687 0.03516,-0.05078 0.04297,-0.04297 0.04297,-0.04688 0.09375,-0.08594 0.04687,-0.03516 0.05469,-0.03516 0.05078,-0.03516 0.05469,-0.03125 0.11719,-0.05469 0.05859,-0.01953 0.0625,-0.01953 0.05859,-0.01953 0.0625,-0.01172 0.0625,-0.01563 0.06641,-0.0078 0.0625,-0.0039 11.5,-0.0039 0.0625,0.0039 0.06641,0.0078 0.0625,0.01563 0.0625,0.01172 0.05859,0.01953 0.0625,0.01953 0.05859,0.01953 0.11719,0.05469 0.05078,0.03125 0.10938,0.07031 0.04687,0.03516 0.09375,0.08594 0.04297,0.04687 0.04297,0.04297 0.03516,0.05078 0.03516,0.04687 0.03125,0.05078 0.03125,0.05859 0.03125,0.05078 0.02734,0.05859 0.02344,0.0625 0.01953,0.05859 0.03125,0.125 0.01172,0.0625 z m 8.7539,0.26562 v -0.26172 l 0.02344,-0.125 0.03125,-0.125 0.01953,-0.05859 0.02734,-0.0625 0.02734,-0.05859 0.02734,-0.05078 0.03125,-0.05859 0.03125,-0.05078 0.03516,-0.04687 0.04297,-0.05078 0.03516,-0.04297 0.08984,-0.08984 0.04687,-0.04297 0.04687,-0.03516 0.10938,-0.07031 0.05469,-0.03125 0.11719,-0.05469 0.05859,-0.01953 0.0625,-0.01953 0.05859,-0.01953 0.0625,-0.01172 0.06641,-0.01563 0.0625,-0.0078 0.0625,-0.0039 22.844,-0.0039 0.07031,0.0039 0.0625,0.0078 0.0625,0.01563 0.0625,0.01172 0.0625,0.01953 0.11719,0.03906 0.11719,0.05469 0.05469,0.03125 0.10938,0.07031 0.04687,0.03516 0.09375,0.08594 0.04297,0.04687 0.04297,0.04297 0.03516,0.05078 0.03516,0.04687 0.03516,0.05078 0.02734,0.05859 0.03125,0.05078 0.02734,0.05859 0.01953,0.0625 0.01953,0.05859 0.02344,0.0625 0.03516,0.1875 0.0078,0.06641 v 0.13281 l -0.0078,0.06641 -0.03516,0.1875 -0.02344,0.0625 -0.01953,0.05859 -0.01953,0.0625 -0.02734,0.05859 -0.03125,0.05469 -0.02734,0.05859 -0.03516,0.05469 -0.03516,0.04687 -0.03516,0.05078 -0.04297,0.04687 -0.04297,0.04297 -0.05078,0.04297 -0.04687,0.03906 -0.04687,0.03516 -0.10938,0.07031 -0.05469,0.03125 -0.17578,0.08203 -0.05859,0.01563 -0.0625,0.01953 -0.0625,0.01172 -0.0625,0.01562 -0.0625,0.0039 h -0.07031 l -22.84,0.0039 h -0.0625 l -0.0625,-0.0039 -0.06641,-0.01563 -0.0625,-0.01172 -0.05859,-0.01953 -0.0625,-0.01563 -0.17578,-0.08203 -0.05469,-0.03125 -0.10938,-0.07031 -0.04687,-0.03516 -0.04687,-0.04297 -0.04297,-0.04297 -0.04687,-0.04297 -0.03516,-0.04687 -0.04297,-0.05078 -0.03516,-0.04687 -0.03125,-0.05469 -0.03125,-0.05859 -0.02734,-0.05469 -0.02734,-0.05859 -0.02734,-0.0625 -0.01953,-0.05859 -0.03125,-0.125 z m 48.008,-0.26562 0.0039,0.06641 v 0.13281 l -0.0039,0.06641 v 0.0625 l -0.01953,0.06641 -0.01172,0.0625 -0.01953,0.0625 -0.01953,0.05859 -0.01953,0.0625 -0.03125,0.05469 -0.02734,0.05469 -0.03125,0.05859 -0.03516,0.05469 -0.03516,0.04687 -0.03516,0.05078 -0.04297,0.04687 -0.04297,0.04297 -0.04688,0.04297 -0.04687,0.03906 -0.05469,0.03516 -0.04687,0.03516 -0.05469,0.03516 -0.05859,0.03125 -0.05469,0.02734 -0.05859,0.02734 -0.0625,0.02734 -0.05859,0.01563 -0.0625,0.01953 -0.0625,0.01172 -0.0625,0.01562 -0.0625,0.0039 h -0.06641 l -11.484,0.0039 h -0.06641 l -0.0625,-0.0039 -0.06641,-0.02344 -0.0625,-0.01172 -0.0625,-0.01953 -0.05859,-0.01563 -0.0625,-0.02734 -0.05859,-0.02734 -0.05469,-0.02734 -0.05859,-0.03125 -0.05469,-0.03516 -0.04687,-0.03516 -0.05078,-0.03516 -0.04687,-0.03516 -0.08594,-0.08594 -0.04297,-0.04687 -0.03516,-0.05078 -0.03516,-0.04687 -0.03516,-0.05469 -0.03125,-0.05859 -0.02734,-0.05469 -0.02734,-0.05859 -0.02734,-0.0625 -0.01563,-0.05859 -0.01953,-0.0625 -0.0078,-0.05859 -0.01562,-0.0625 v -0.0625 l -0.0039,-0.06641 v -0.12891 l 0.0039,-0.06641 v -0.0625 l 0.01562,-0.0625 0.01172,-0.0625 0.01953,-0.0625 0.01563,-0.05859 0.02734,-0.0625 0.02734,-0.05859 0.02734,-0.05078 0.03125,-0.05859 0.03516,-0.05078 0.03516,-0.04687 0.03516,-0.05078 0.04297,-0.04297 0.04297,-0.04687 0.04297,-0.04297 0.04687,-0.04297 0.05078,-0.03516 0.04687,-0.03516 0.05469,-0.03516 0.05859,-0.03125 0.05469,-0.02734 0.05859,-0.02734 0.0625,-0.01953 0.05859,-0.01953 0.0625,-0.01953 0.0625,-0.01172 0.0625,-0.01562 0.0625,-0.0078 0.06641,-0.0039 11.484,-0.0078 0.06641,0.0039 0.0625,0.0078 0.0625,0.01563 0.0625,0.01172 0.0625,0.01953 0.05859,0.01953 0.0625,0.01953 0.05859,0.02734 0.05469,0.02734 0.05859,0.03125 0.05469,0.03516 0.04687,0.03516 0.05469,0.03516 0.04687,0.04297 0.04297,0.04297 0.04297,0.04687 0.04297,0.04297 0.03516,0.05078 0.03516,0.04687 0.03516,0.05078 0.03125,0.05859 0.02734,0.05078 0.02734,0.05859 0.01953,0.0625 0.01953,0.05859 0.01953,0.0625 0.01172,0.0625 0.01562,0.0625 z m -39.074,10.41 v 0.12891 l -0.0039,0.06641 -0.0078,0.0625 -0.01172,0.0625 -0.03125,0.125 -0.01953,0.0625 -0.05469,0.11719 -0.02344,0.05859 -0.03125,0.05859 -0.03516,0.05469 -0.03125,0.04687 -0.04297,0.05078 -0.03516,0.04687 -0.04688,0.04297 -0.04297,0.04297 -0.04687,0.04297 -0.05469,0.04297 -0.04687,0.03125 -0.05469,0.03516 -0.05859,0.03125 -0.05469,0.02734 -0.05859,0.02734 -0.05078,0.01953 -0.0625,0.01953 -0.125,0.03125 -0.0625,0.01172 h -0.0625 l -0.07031,0.0078 h -0.0625 l -10.586,-0.0039 h -0.07031 l -0.06641,-0.0078 h -0.0625 l -0.0625,-0.01172 -0.125,-0.03125 -0.05859,-0.01953 -0.17578,-0.08203 -0.05469,-0.03125 -0.05469,-0.03516 -0.05469,-0.03125 -0.14062,-0.12891 -0.04297,-0.04297 -0.04297,-0.04687 -0.03516,-0.05078 -0.03516,-0.04688 -0.03516,-0.05469 -0.02734,-0.04687 -0.03125,-0.05078 -0.02734,-0.05859 -0.01953,-0.05859 -0.03906,-0.125 -0.03516,-0.1875 v -0.26562 l 0.03516,-0.1875 0.01563,-0.06641 0.03906,-0.11719 0.02734,-0.05859 0.03125,-0.05859 0.02734,-0.05078 0.03516,-0.05469 0.03516,-0.05078 0.03516,-0.04687 0.08594,-0.09375 0.09375,-0.08594 0.04687,-0.03516 0.10938,-0.07031 0.05469,-0.02734 0.05859,-0.03125 0.05859,-0.02734 0.11719,-0.03906 0.0625,-0.01953 0.1875,-0.03516 0.07031,-0.0078 h 10.711 l 0.07031,0.0078 0.1875,0.03516 0.125,0.03906 0.05859,0.01953 0.05859,0.02734 0.05469,0.03125 0.05859,0.02734 0.05469,0.03516 0.04687,0.03516 0.05469,0.03516 0.04687,0.04297 0.08984,0.08984 0.03516,0.04687 0.04297,0.04687 0.03125,0.05078 0.03516,0.05469 0.03125,0.05078 0.08203,0.17578 0.01953,0.05859 0.03125,0.125 0.01172,0.0625 0.0078,0.0625 z m 21.152,0 v 0.19531 l -0.02344,0.125 -0.03125,0.125 -0.01953,0.0625 -0.02344,0.0625 -0.02734,0.05859 -0.02734,0.05469 -0.03125,0.05859 -0.03125,0.05469 -0.03516,0.04687 -0.04687,0.03906 -0.03516,0.04687 -0.04687,0.04297 -0.04297,0.04297 -0.09375,0.08594 -0.05469,0.03125 -0.05469,0.03516 -0.05469,0.03125 -0.17578,0.08203 -0.0625,0.01953 -0.05859,0.01562 -0.0625,0.01563 -0.06641,0.01172 h -0.0625 l -0.0625,0.0078 h -0.07031 l -10.574,-0.0078 h -0.07031 l -0.0625,-0.0078 h -0.07031 l -0.0625,-0.01172 -0.125,-0.03125 -0.05859,-0.01953 -0.17578,-0.08203 -0.05469,-0.03125 -0.04297,-0.02734 -0.05078,-0.03125 -0.14062,-0.12891 -0.04297,-0.04297 -0.04297,-0.04687 -0.03516,-0.05078 -0.03516,-0.04688 -0.03125,-0.05469 -0.04297,-0.04687 -0.03125,-0.05078 -0.02734,-0.05859 -0.03906,-0.125 -0.03125,-0.125 -0.02344,-0.125 v -0.26562 l 0.02344,-0.125 0.01563,-0.0625 0.01172,-0.0625 0.02344,-0.0625 0.01953,-0.05859 0.02734,-0.05859 0.03125,-0.05859 0.03125,-0.05078 0.03125,-0.05469 0.03516,-0.05078 0.03516,-0.04687 0.08594,-0.09375 0.09375,-0.08594 0.04687,-0.03516 0.05078,-0.03516 0.05469,-0.03516 0.05469,-0.02734 0.05859,-0.03125 0.05859,-0.02734 0.11719,-0.03906 0.0625,-0.01953 0.125,-0.02344 0.07031,-0.01172 0.0625,-0.0078 10.715,0.0039 0.0625,0.0078 0.0625,0.01172 0.06641,0.01172 0.0625,0.01172 0.05859,0.01953 0.0625,0.01953 0.05859,0.01953 0.05859,0.02734 0.05859,0.03125 0.05469,0.02734 0.10938,0.07031 0.04687,0.03516 0.04687,0.04297 0.08984,0.08984 0.03516,0.04687 0.04297,0.04687 0.03516,0.05078 0.03125,0.05469 0.03125,0.05078 0.08203,0.17578 0.01953,0.05859 0.03125,0.125 0.02344,0.125 z"
     id="path1" />
</svg>
