<?xml version="1.0" encoding="UTF-8" standalone="no"?>
<svg
   xmlns:dc="http://purl.org/dc/elements/1.1/"
   xmlns:cc="http://creativecommons.org/ns#"
   xmlns:rdf="http://www.w3.org/1999/02/22-rdf-syntax-ns#"
   xmlns:svg="http://www.w3.org/2000/svg"
   xmlns="http://www.w3.org/2000/svg"
   xmlns:sodipodi="http://sodipodi.sourceforge.net/DTD/sodipodi-0.dtd"
   xmlns:inkscape="http://www.inkscape.org/namespaces/inkscape"
   viewBox="0 0 1000 1000"
   version="1.1"
   id="svg14"
   sodipodi:docname="icon.svg"
   width="1000"
   height="1000"
   inkscape:version="1.0.1 (3bc2e813f5, 2020-09-07)">
  <metadata
     id="metadata18">
    <rdf:RDF>
      <cc:Work
         rdf:about="">
        <dc:format>image/svg+xml</dc:format>
        <dc:type
           rdf:resource="http://purl.org/dc/dcmitype/StillImage" />
      </cc:Work>
    </rdf:RDF>
  </metadata>
  <sodipodi:namedview
     pagecolor="#ffffff"
     bordercolor="#666666"
     borderopacity="1"
     objecttolerance="10"
     gridtolerance="10"
     guidetolerance="10"
     inkscape:pageopacity="0"
     inkscape:pageshadow="2"
     inkscape:window-width="2560"
     inkscape:window-height="1377"
     id="namedview16"
     showgrid="false"
     inkscape:zoom="1.008"
     inkscape:cx="360.84964"
     inkscape:cy="460.31746"
     inkscape:window-x="-8"
     inkscape:window-y="-8"
     inkscape:window-maximized="1"
     inkscape:current-layer="svg14"
     inkscape:document-rotation="0" />
  <defs
     id="defs4">
    <style
       id="style2">.a{fill:#fff;}.b{fill:#160d0d;}</style>
  </defs>
  <title
     id="title6">web-ruuvi-eye</title>
  <path
     class="b"
     d="M 500,94.26 A 405.73,405.73 0 1 1 94.31,499.98 405,405 0 0 1 500,94.26 Z M 500,0 C 224.42,0 0,224.4 0,500 c 0,275.6 224.41,500 500,500 275.59,0 500,-224.44 500,-500 C 1000,224.44 775.58,0 500,0 Z"
     id="path10" />
  <path
     class="b"
     d="m 603.85,762.63 c 81.07,-7.7 153.35,-52.23 197.23,-121.59 11.14,-17.58 23.29,-44.56 29.16,-64.74 14.07,-48.4 13.52,-103.81 -1.56,-151.55 C 813.6,377.01 782.19,330.9 743.76,300.15 A 261.72,261.72 0 0 0 517.65,249.9 c -6.55,1.6 -12.26,3 -12.67,3.15 -0.41,0.15 0.8,3.52 2.73,7.54 a 174.32,174.32 0 0 1 14.5,47.86 c 1.67,10.87 1.7,36.69 0,48.18 -8.6,59.7 -49.37,111.58 -105,133.71 -26.46,10.52 -60.66,14.63 -86.39,10.4 -4.91,-0.8 -9.56,-1.48 -10.33,-1.48 -1.16,0 -1.28,2.44 -0.8,14.69 a 260.41,260.41 0 0 0 124.6,211.54 c 34.39,21.07 71.19,33.07 114.63,37.44 8,0.8 35,0.57 44.95,-0.35 z"
     id="path12" />
</svg>
